<svg width="136" height="32" viewBox="0 0 136 32" fill="none" xmlns="http://www.w3.org/2000/svg">
<path d="M0.541191 0.877589C0.198387 1.22795 0 1.77343 0 2.47984V27.6773C0 28.3837 0.198387 28.9292 0.541191 29.2795L0.625798 29.3564L15.0877 15.2424V14.9091L0.625798 0.794984L0.541191 0.877589Z" fill="url(#paint0_linear_4632_11284)"/>
<path d="M68.6821 17.0726C65.9411 17.0726 63.702 19.1092 63.702 21.9192C63.702 24.7065 65.9411 26.7645 68.6821 26.7645C71.4289 26.7645 73.6681 24.7065 73.6681 21.9192C73.6681 19.1092 71.4289 17.0726 68.6821 17.0726ZM68.6821 24.856C67.1781 24.856 65.8842 23.644 65.8842 21.9192C65.8842 20.1717 67.1781 18.9811 68.6821 18.9811C70.1861 18.9811 71.4858 20.1717 71.4858 21.9192C71.4858 23.644 70.1861 24.856 68.6821 24.856ZM57.816 17.0726C55.0692 17.0726 52.8358 19.1092 52.8358 21.9192C52.8358 24.7065 55.0692 26.7645 57.816 26.7645C60.5613 26.7645 62.7961 24.7065 62.7961 21.9192C62.7961 19.1092 60.5613 17.0726 57.816 17.0726ZM57.816 24.856C56.3105 24.856 55.0123 23.644 55.0123 21.9192C55.0123 20.1717 56.3105 18.9811 57.816 18.9811C59.3199 18.9811 60.6138 20.1717 60.6138 21.9192C60.6138 23.644 59.3199 24.856 57.816 24.856ZM44.8857 18.5581V20.6175H49.9227C49.7754 21.7683 49.3815 22.6143 48.7776 23.2039C48.0424 23.916 46.8973 24.7065 44.8857 24.7065C41.7859 24.7065 39.3585 22.2639 39.3585 19.2374C39.3585 16.2109 41.7859 13.7684 44.8857 13.7684C46.5618 13.7684 47.7813 14.4079 48.6813 15.2368L50.1678 13.7855C48.9089 12.6119 47.2343 11.7104 44.8857 11.7104C40.6349 11.7104 37.0625 15.0872 37.0625 19.2374C37.0625 23.3876 40.6349 26.7645 44.8857 26.7645C47.1832 26.7645 48.9089 26.0296 50.2655 24.6509C51.6557 23.2936 52.089 21.3852 52.089 19.8441C52.089 19.3656 52.0481 18.9255 51.9752 18.5581H44.8857ZM97.7591 20.1546C97.3492 19.0708 96.0845 17.0726 93.5084 17.0726C90.9556 17.0726 88.8302 19.0366 88.8302 21.9192C88.8302 24.6338 90.9337 26.7645 93.7534 26.7645C96.0334 26.7645 97.3492 25.4072 97.8904 24.6167L96.1983 23.5158C95.6337 24.3219 94.865 24.856 93.7534 24.856C92.6492 24.856 91.8571 24.3618 91.3494 23.3876L97.9881 20.7058L97.7591 20.1546ZM90.9906 21.7683C90.9337 19.8997 92.477 18.9426 93.5828 18.9426C94.4492 18.9426 95.1845 19.3656 95.4295 19.9709L90.9906 21.7683ZM85.5947 26.4696H87.777V12.2274H85.5947V26.4696ZM82.0208 18.1522H81.9479C81.4577 17.5853 80.5227 17.0726 79.3382 17.0726C76.8525 17.0726 74.5798 19.2032 74.5798 21.9349C74.5798 24.6509 76.8525 26.7645 79.3382 26.7645C80.5227 26.7645 81.4577 26.2475 81.9479 25.6635H82.0208V26.3586C82.0208 28.2115 81.007 29.207 79.3717 29.207C78.0384 29.207 77.2113 28.267 76.87 27.4766L74.9722 28.2499C75.5192 29.5346 76.9677 31.1155 79.3717 31.1155C81.9304 31.1155 84.0893 29.6457 84.0893 26.0694V17.3674H82.0208V18.1522ZM79.5249 24.856C78.0209 24.856 76.762 23.6269 76.762 21.9349C76.762 20.2273 78.0209 18.9811 79.5249 18.9811C81.007 18.9811 82.1754 20.2273 82.1754 21.9349C82.1754 23.6269 81.007 24.856 79.5249 24.856ZM107.976 12.2274H102.757V26.4696H104.933V21.0733H107.976C110.393 21.0733 112.764 19.3656 112.764 16.6496C112.764 13.935 110.387 12.2274 107.976 12.2274ZM108.033 19.0922H104.933V14.2085H108.033C109.658 14.2085 110.586 15.5259 110.586 16.6496C110.586 17.752 109.658 19.0922 108.033 19.0922ZM121.487 17.0455C119.914 17.0455 118.279 17.7235 117.607 19.226L119.538 20.0165C119.954 19.226 120.718 18.9697 121.526 18.9697C122.655 18.9697 123.801 19.6319 123.818 20.8012V20.9508C123.424 20.7286 122.581 20.3996 121.544 20.3996C119.464 20.3996 117.344 21.5176 117.344 23.6041C117.344 25.5126 119.048 26.7417 120.963 26.7417C122.428 26.7417 123.236 26.0965 123.744 25.3459H123.818V26.4469H125.92V20.9835C125.92 18.4584 123.989 17.0455 121.487 17.0455ZM121.224 24.8503C120.513 24.8503 119.521 24.5056 119.521 23.644C119.521 22.5416 120.758 22.1186 121.828 22.1186C122.787 22.1186 123.236 22.3251 123.818 22.5972C123.647 23.916 122.485 24.8503 121.224 24.8503ZM133.578 17.3574L131.077 23.5315H131.002L128.416 17.3574H126.069L129.955 25.9854L127.738 30.7865H130.012L136 17.3574H133.578ZM113.96 26.4696H116.142V12.2274H113.96V26.4696Z" fill="white"/>
<defs>
<linearGradient id="paint0_linear_4632_11284" x1="13.8037" y1="27.9397" x2="-5.3124" y2="8.3604" gradientUnits="userSpaceOnUse">
<stop stop-color="#00A0FF"/>
<stop offset="0.0066" stop-color="#00A1FF"/>
<stop offset="0.2601" stop-color="#00BEFF"/>
<stop offset="0.5122" stop-color="#00D2FF"/>
<stop offset="0.7604" stop-color="#00DFFF"/>
<stop offset="1" stop-color="#00E3FF"/>
</linearGradient>
</defs>
</svg>
